<svg xmlns="http://www.w3.org/2000/svg" width="161.816" height="166.381" viewBox="0 0 161.816 166.381"><g transform="translate(-880.005 -720)"><g transform="translate(0.91)"><path d="M20.293,45.919V30.958H5.332a5.333,5.333,0,0,1,0-10.665H20.293V5.332a5.333,5.333,0,0,1,10.665,0V20.293H45.919a5.333,5.333,0,0,1,0,10.665H30.958V45.919a5.333,5.333,0,0,1-10.665,0Z" transform="translate(989.659 835.13)" fill="#fff"/><path d="M39,23.4a23.4,23.4,0,1,1,23.4,23.4A23.4,23.4,0,0,1,39,23.4Zm82.745.446a10.4,10.4,0,0,0-14.706,0L78.883,51.994H45.9L17.752,23.844A10.4,10.4,0,1,0,3.046,38.55L33.8,69.3v86.683a10.4,10.4,0,0,0,10.4,10.4h5.2a10.4,10.4,0,0,0,10.4-10.4v-36.4h5.2v36.4a10.4,10.4,0,0,0,10.4,10.4h5.2a10.4,10.4,0,0,0,10.4-10.4V69.3l30.75-30.75a10.4,10.4,0,0,0,0-14.706Z" transform="translate(879.095 720)" fill="#fff"/></g></g></svg>