<svg xmlns="http://www.w3.org/2000/svg" width="161.818" height="166.381" viewBox="0 0 161.818 166.381"><g transform="translate(-880.005 -720)"><g transform="translate(0.91)"><g transform="translate(879.09 720)"><path d="M220.4,170.241a58.936,58.936,0,0,0,10.416,81.194,2.447,2.447,0,0,0,3.941-1.993v-.051a58.757,58.757,0,0,1,17.733-42.126,2.444,2.444,0,0,1,2.366-.579,48.4,48.4,0,0,0,59.365-33.535c.269-.96.515-1.929.727-2.911a48.536,48.536,0,0,0,1.066-9.471c0-.242.019-.479.019-.723,0-1.228-.061-2.442-.153-3.649a48.556,48.556,0,0,0-1.613-9.318,2.481,2.481,0,0,1,1-2.714,30.155,30.155,0,0,0,3.488-2.843,2.419,2.419,0,0,1,3.144-.208l32.693,25.133.184-.3a3.541,3.541,0,0,0,3.689-5.966l.085-.138L328.319,128.19a2.443,2.443,0,0,1-.592-2.239,29.776,29.776,0,0,0,.746-6.611,30.4,30.4,0,0,0-60.8,0,29.683,29.683,0,0,0,.488,5.351L241.924,86.634a2.452,2.452,0,0,0-4.007-.025c-37.425,51.571,12.452,86.109,12.452,86.109s16.565,13.525,29.916,2.315c12.577-10.561,6.664-22.739,5.934-24.117a1.827,1.827,0,0,0-.146-.237l-3.693-5.358a30.248,30.248,0,0,0,12.14,4.177,2.475,2.475,0,0,1,2.158,1.889,61.363,61.363,0,0,1,1.4,8.661,30.24,30.24,0,0,1-4,15.038l-.216.354a30.49,30.49,0,0,1-26.184,15.009c-32.746,0-47.276-51.69-47.723-54.55a62.7,62.7,0,0,1-2.018-13.529,2.416,2.416,0,0,0-.653-1.565l-15.013-15.821a2.446,2.446,0,0,0-4.217,1.5q-.121,2-.123,4.03a69.523,69.523,0,0,0,21.4,50.25q1.6,1.536,3.291,2.97a2.409,2.409,0,0,1,.263,3.4Q221.588,168.649,220.4,170.241Zm83.361-56.2a3.549,3.549,0,1,1,1.039,2.513,3.553,3.553,0,0,1-1.039-2.513Z" transform="translate(-197.924 -85.583)" fill="#fff"/></g><path d="M20.293,45.919V30.958H5.332a5.333,5.333,0,0,1,0-10.665H20.293V5.332a5.333,5.333,0,0,1,10.665,0V20.293H45.919a5.333,5.333,0,0,1,0,10.665H30.958V45.919a5.333,5.333,0,0,1-10.665,0Z" transform="translate(989.659 835.13)" fill="#fff"/></g></g></svg>