<svg xmlns="http://www.w3.org/2000/svg" xmlns:xlink="http://www.w3.org/1999/xlink" width="1920" height="652" viewBox="0 0 1920 652"><defs><style>.a{fill:#e5ecff;}.b{clip-path:url(#a);}.c{fill:url(#b);}.d{fill:url(#c);}.e{fill:#346afc;}.f{fill:#fd7c7c;}.g{fill:#66cdaa;}.h{fill:#7e66cd;}</style><clipPath id="a"><rect class="a" width="1920" height="652" transform="translate(0 97)"/></clipPath><linearGradient id="b" x1="0.395" y1="0.813" x2="0.644" gradientUnits="objectBoundingBox"><stop offset="0" stop-color="#e5ecff"/><stop offset="1" stop-color="#346afc"/></linearGradient><linearGradient id="c" x1="0.537" y1="1" x2="0.544" y2="-0.187" xlink:href="#b"/></defs><g transform="translate(0 -97)"><rect class="a" width="1920" height="652" transform="translate(0 97)"/><g class="b"><path class="c" d="M1088.453,57.019S1004.1,196.689,1149.688,262.8s293.5,22.368,330.313,121.781S1597.745,602.763,1720.948,533.8s122.3-189.656,177.6-256.025,87.5-88.408,135.927-91.994S1942.026,51.951,1870.813,57.019,1088.453,57.019,1088.453,57.019Z" transform="translate(0 4.336)"/><path class="d" d="M171.969,886.067c70.74-.032,38.094-116.518,170.917-103.965s147.72-79.674,200.822-92.879,163.512-24.1,343.335,166.547S171.969,886.067,171.969,886.067Z" transform="translate(-379 -26.353)"/><path class="e" d="M-5.037-5.038l100.182.75.748,102.521-100.182-.75ZM85.217,5.638l-80.18-.6.6,82.52,80.18.6Z" transform="matrix(0.966, 0.259, -0.259, 0.966, 445.18, 40.232)"/><path class="f" d="M53,10C29.29,10,10,29.963,10,54.5S29.29,99,53,99,96,79.037,96,54.5,76.71,10,53,10M53,0c29.271,0,53,24.4,53,54.5S82.271,109,53,109,0,84.6,0,54.5,23.729,0,53,0Z" transform="translate(924 134)"/><path class="g" d="M0,47.232a5,5,0,0,1-4.813-3.655,5,5,0,0,1,3.469-6.162l151-42.231a5,5,0,0,1,6.162,3.469,5,5,0,0,1-3.469,6.162l-151,42.231A5.005,5.005,0,0,1,0,47.232Z" transform="translate(250.5 643.423)"/><path class="h" d="M41.242-10.6,90.079,76.83-9.446,77.9Zm31.9,77.609L41.133,9.713l-33.22,58Z" transform="matrix(0.921, -0.391, 0.391, 0.921, 1210.839, 626.398)"/></g></g></svg>