<svg xmlns="http://www.w3.org/2000/svg" xmlns:xlink="http://www.w3.org/1999/xlink" width="1920" height="470" viewBox="0 0 1920 470"><defs><style>.a{fill:#e5ecff;}.b{fill:#fee;}.c{clip-path:url(#a);}.d{fill:url(#b);}.e{fill:url(#c);}.f{fill:#346afc;}.g{fill:#fd7c7c;}.h{fill:#66cdaa;}.i{fill:#7e66cd;}</style><clipPath id="a"><rect class="a" width="1920" height="470" transform="translate(0 97)"/></clipPath><linearGradient id="b" x1="0.605" y1="0.813" x2="0.356" gradientUnits="objectBoundingBox"><stop offset="0" stop-color="#fee"/><stop offset="1" stop-color="#fd7c7c"/></linearGradient><linearGradient id="c" x1="0.537" y1="1" x2="0.544" y2="-0.187" xlink:href="#b"/></defs><g transform="translate(0 -97)"><rect class="b" width="1920" height="470" transform="translate(0 97)"/><g class="c"><path class="d" d="M2020.1,57.019s84.349,139.671-61.234,205.785-293.5,22.368-330.312,121.781S1510.8,602.763,1387.6,533.8,1265.3,344.141,1210,277.771s-87.5-88.408-135.927-91.994,92.453-133.826,163.667-128.758S2020.1,57.019,2020.1,57.019Z" transform="translate(-1272.399 -106.664)"/><path class="e" d="M171.969,886.067c70.74-.032,38.094-116.518,170.917-103.965s147.72-79.674,200.822-92.879,163.512-24.1,343.335,166.547S171.969,886.067,171.969,886.067Z" transform="matrix(0.999, 0.035, -0.035, 0.999, 1076.808, -307.752)"/><path class="f" d="M-5.037-5.038l100.182.75.748,102.521-100.182-.75ZM85.217,5.638l-80.18-.6.6,82.52,80.18.6Z" transform="translate(260.939 250.444) rotate(-47)"/><path class="g" d="M53,10C29.29,10,10,29.963,10,54.5S29.29,99,53,99,96,79.037,96,54.5,76.71,10,53,10M53,0c29.271,0,53,24.4,53,54.5S82.271,109,53,109,0,84.6,0,54.5,23.729,0,53,0Z" transform="translate(1388 52)"/><path class="h" d="M0,47.232a5,5,0,0,1-4.813-3.655,5,5,0,0,1,3.469-6.162l151-42.231a5,5,0,0,1,6.162,3.469,5,5,0,0,1-3.469,6.162l-151,42.231A5.005,5.005,0,0,1,0,47.232Z" transform="translate(360 476.423)"/><path class="i" d="M41.242-10.6,90.079,76.83-9.446,77.9Zm31.9,77.609L41.133,9.713l-33.22,58Z" transform="matrix(0.921, -0.391, 0.391, 0.921, 1522.839, 403.398)"/></g></g></svg>