<svg xmlns="http://www.w3.org/2000/svg" width="269.037" height="129.474" viewBox="0 0 269.037 129.474">
  <g id="Group_24" data-name="Group 24" transform="translate(-111.182 -85.583)">
    <g id="Group_21" data-name="Group 21" transform="translate(254.295 85.583)">
      <path id="Path_2" data-name="Path 2" d="M215.413,151.462a45.862,45.862,0,0,0,8.106,63.183,1.9,1.9,0,0,0,3.067-1.551v-.04a45.723,45.723,0,0,1,13.8-32.781,1.9,1.9,0,0,1,1.841-.45,37.664,37.664,0,0,0,46.2-26.1c.21-.747.4-1.5.566-2.265a37.768,37.768,0,0,0,.83-7.37c0-.188.015-.373.015-.563,0-.955-.048-1.9-.119-2.839a37.781,37.781,0,0,0-1.256-7.251,1.931,1.931,0,0,1,.777-2.112,23.462,23.462,0,0,0,2.714-2.212,1.882,1.882,0,0,1,2.447-.162l25.441,19.558.144-.231a2.756,2.756,0,0,0,2.871-4.643l.066-.107-23.524-24.791a1.9,1.9,0,0,1-.46-1.742,23.17,23.17,0,0,0,.581-5.144,23.658,23.658,0,0,0-47.315,0,23.093,23.093,0,0,0,.379,4.164L232.164,86.4a1.908,1.908,0,0,0-3.118-.02c-29.123,40.131,9.69,67.008,9.69,67.008s12.89,10.525,23.28,1.8c9.787-8.218,5.186-17.695,4.618-18.767a1.426,1.426,0,0,0-.114-.185l-2.874-4.169a23.539,23.539,0,0,0,9.447,3.25,1.926,1.926,0,0,1,1.68,1.47,47.754,47.754,0,0,1,1.086,6.74,23.529,23.529,0,0,1-3.112,11.7l-.17.279A23.726,23.726,0,0,1,252.2,167.187c-25.482,0-36.789-40.224-37.137-42.449a48.793,48.793,0,0,1-1.571-10.528,1.88,1.88,0,0,0-.508-1.218L201.3,100.681a1.9,1.9,0,0,0-3.282,1.171q-.094,1.557-.1,3.136a54.1,54.1,0,0,0,16.657,39.1q1.242,1.2,2.561,2.311a1.875,1.875,0,0,1,.2,2.646Q216.339,150.223,215.413,151.462Zm64.869-43.735a2.765,2.765,0,1,1,2.765,2.765A2.764,2.764,0,0,1,280.282,107.727Z" transform="translate(-197.924 -85.583)" fill="#346afc"/>
    </g>
    <g id="Group_23" data-name="Group 23" transform="translate(111.182 108.693)">
      <g id="Group_2" data-name="Group 2" transform="translate(0.574 13.037)">
        <g id="inThis_rder" data-name="inThis rder" style="isolation: isolate">
          <g id="Group_22" data-name="Group 22" style="isolation: isolate">
            <path id="Path_3" data-name="Path 3" d="M111.53,115.109H128v56.807H111.53Z" transform="translate(-111.53 -102.542)" fill="#346afc"/>
            <path id="Path_4" data-name="Path 4" d="M170.1,174.12a16.876,16.876,0,0,1-5.966,2.693,30.228,30.228,0,0,1-7.444.9q-10.137,0-15.68-5.174t-5.544-15.205V134H126.7V121.325h8.764V107.492h16.472v13.833h14.149V134H151.934V157.12a7.748,7.748,0,0,0,1.848,5.544,6.841,6.841,0,0,0,5.227,1.953,10.574,10.574,0,0,0,6.652-2.112Z" transform="translate(-101.673 -107.492)" fill="#346afc"/>
            <path id="Path_5" data-name="Path 5" d="M170.138,169.345a27.855,27.855,0,0,1-11.14-10.4,30.417,30.417,0,0,1,0-30.2,27.866,27.866,0,0,1,11.14-10.4,36.348,36.348,0,0,1,32.153,0,27.972,27.972,0,0,1,11.087,10.4,30.417,30.417,0,0,1,0,30.2,27.96,27.96,0,0,1-11.087,10.4,36.348,36.348,0,0,1-32.153,0Zm26.5-14.044q4.064-4.276,4.065-11.457t-4.065-11.457a13.723,13.723,0,0,0-10.4-4.276,13.893,13.893,0,0,0-10.455,4.276q-4.116,4.279-4.116,11.457t4.116,11.457a13.893,13.893,0,0,0,10.455,4.276A13.723,13.723,0,0,0,196.642,155.3Z" transform="translate(-83.289 -102.875)" fill="#346afc"/>
          </g>
        </g>
      </g>
      <path id="Path_6" data-name="Path 6" d="M120.024,117.273a8.842,8.842,0,1,1,8.842-8.842A8.842,8.842,0,0,1,120.024,117.273Z" transform="translate(-111.182 -99.59)" fill="#ff7c7c"/>
    </g>
  </g>
</svg>
