<svg xmlns="http://www.w3.org/2000/svg" xmlns:xlink="http://www.w3.org/1999/xlink" width="1920" height="343" viewBox="0 0 1920 343"><defs><style>.a{fill:#ebf3ff;}.b{clip-path:url(#a);}.c{fill:#346afc;}.d{fill:#ff7c7c;}.e{fill:#51edb8;}.f{fill:#7e66cd;}</style><clipPath id="a"><rect class="a" width="1920" height="343"/></clipPath></defs><rect class="a" width="1920" height="343"/><g class="b"><path class="c" d="M-5.037,98.234-4.289-4.288l100.182-.75L95.145,97.483ZM5.639,5.638l-.6,82.52,80.18-.6.6-82.52Z" transform="matrix(-0.259, -0.966, 0.966, -0.259, 1547.748, 244.941)"/><path class="d" d="M53,10C29.29,10,10,29.963,10,54.5S29.29,99,53,99,96,79.037,96,54.5,76.71,10,53,10M53,0c29.271,0,53,24.4,53,54.5S82.271,109,53,109,0,84.6,0,54.5,23.729,0,53,0Z" transform="translate(254 24)"/><path class="e" d="M0,123a4.976,4.976,0,0,1-2.777-.846,5,5,0,0,1-1.373-6.936l79-118a5,5,0,0,1,6.936-1.373,5,5,0,0,1,1.373,6.936l-79,118A5,5,0,0,1,0,123Z" transform="translate(379.5 244.5)"/><path class="f" d="M42.009,83.4-8.679-5.094l99.525,1.07ZM8.68,5.094l33.22,58,32.006-57.3Z" transform="matrix(-0.921, -0.391, 0.391, -0.921, 1201.828, 69.716)"/></g></svg>