<svg xmlns="http://www.w3.org/2000/svg" width="152" height="156.268" viewBox="0 0 152 156.268">
  <g id="Group_25" data-name="Group 25" transform="translate(1 1)">
    <path id="Path_2" data-name="Path 2" d="M218.756,164.057a54.631,54.631,0,0,0,9.656,75.263,2.269,2.269,0,0,0,3.654-1.847v-.047A54.465,54.465,0,0,1,248.5,198.378a2.265,2.265,0,0,1,2.193-.537,44.866,44.866,0,0,0,55.029-31.085c.25-.89.478-1.788.674-2.7a44.991,44.991,0,0,0,.989-8.779c0-.224.018-.444.018-.67,0-1.138-.057-2.264-.142-3.382a45.006,45.006,0,0,0-1.5-8.638,2.3,2.3,0,0,1,.926-2.516,27.95,27.95,0,0,0,3.233-2.635,2.242,2.242,0,0,1,2.915-.193l30.305,23.3.171-.275a3.283,3.283,0,0,0,3.42-5.53l.079-.128-28.021-29.531a2.264,2.264,0,0,1-.548-2.075,27.6,27.6,0,0,0,.692-6.128,28.181,28.181,0,0,0-56.361,0,27.512,27.512,0,0,0,.452,4.96L238.71,86.558A2.273,2.273,0,0,0,235,86.534c-34.692,47.8,11.542,79.819,11.542,79.819s15.355,12.537,27.73,2.146c11.658-9.789,6.177-21.078,5.5-22.355a1.7,1.7,0,0,0-.136-.22l-3.424-4.966a28.039,28.039,0,0,0,11.253,3.872,2.3,2.3,0,0,1,2,1.751,56.886,56.886,0,0,1,1.293,8.028,28.028,28.028,0,0,1-3.707,13.936l-.2.332a28.263,28.263,0,0,1-24.272,13.912c-30.354,0-43.822-47.914-44.237-50.565a58.121,58.121,0,0,1-1.871-12.541,2.24,2.24,0,0,0-.605-1.45l-13.916-14.665a2.267,2.267,0,0,0-3.909,1.4q-.112,1.854-.114,3.736a64.445,64.445,0,0,0,19.842,46.58q1.48,1.424,3.05,2.753a2.233,2.233,0,0,1,.244,3.152Q219.86,162.582,218.756,164.057Zm77.272-52.1a3.294,3.294,0,1,1,3.294,3.294A3.293,3.293,0,0,1,296.028,111.961Z" transform="translate(-197.924 -85.583)" fill="none" stroke="#346afa" stroke-linecap="round" stroke-linejoin="round" stroke-width="2"/>
  </g>
</svg>
