<svg xmlns="http://www.w3.org/2000/svg" xmlns:xlink="http://www.w3.org/1999/xlink" width="1920" height="343" viewBox="0 0 1920 343"><defs><style>.a{fill:#ebf3ff;}.b{fill:#f0f1f5;}.c{clip-path:url(#a);}.d{fill:#2cebb1;}.e{fill:#315af6;}.f{fill:#f1d364;}.g{fill:#8186a6;}</style><clipPath id="a"><rect class="a" width="1920" height="343"/></clipPath></defs><rect class="b" width="1920" height="343"/><g class="c"><path class="d" d="M-5.037,98.234-4.289-4.288l100.182-.75L95.145,97.483ZM5.639,5.638l-.6,82.52,80.18-.6.6-82.52Z" transform="matrix(-0.259, -0.966, 0.966, -0.259, 1614.748, 171.5)"/><path class="e" d="M53,10C29.29,10,10,29.963,10,54.5S29.29,99,53,99,96,79.037,96,54.5,76.71,10,53,10M53,0c29.271,0,53,24.4,53,54.5S82.271,109,53,109,0,84.6,0,54.5,23.729,0,53,0Z" transform="translate(124 234)"/><path class="f" d="M37,133.442a5,5,0,0,1-4.8-3.617L-4.8,1.384A5,5,0,0,1-1.384-4.8,5,5,0,0,1,4.8-1.384l37,128.441A5,5,0,0,1,37,133.442Z" transform="translate(1407.5 244.941)"/><path class="g" d="M42.009,83.4-8.679-5.094l99.525,1.07ZM8.68,5.094l33.22,58,32.006-57.3Z" transform="translate(376.101 61.482) rotate(166)"/></g></svg>