<svg xmlns="http://www.w3.org/2000/svg" xmlns:xlink="http://www.w3.org/1999/xlink" width="1920" height="343" viewBox="0 0 1920 343"><defs><style>.a{fill:#e5ecff;}.b{fill:#efecf9;}.c{clip-path:url(#a);}.d{fill:#346afc;}.e{fill:#fd7c7c;}.f{fill:#66cdaa;}.g{fill:#7e66cd;}</style><clipPath id="a"><rect class="a" width="1920" height="343" transform="translate(0 97)"/></clipPath></defs><g transform="translate(0 -97)"><rect class="b" width="1920" height="343" transform="translate(0 97)"/><g class="c"><path class="d" d="M-5.037-5.038l100.182.75.748,102.521-100.182-.75ZM85.217,5.638l-80.18-.6.6,82.52,80.18.6Z" transform="matrix(0.259, -0.966, 0.966, 0.259, 282.232, 317.82)"/><path class="e" d="M53,10C29.29,10,10,29.963,10,54.5S29.29,99,53,99,96,79.037,96,54.5,76.71,10,53,10M53,0c29.271,0,53,24.4,53,54.5S82.271,109,53,109,0,84.6,0,54.5,23.729,0,53,0Z" transform="translate(1560 121)"/><path class="f" d="M79,123a5,5,0,0,1-4.159-2.219l-79-118A5,5,0,0,1-2.782-4.155,5,5,0,0,1,4.155-2.782l79,118A5,5,0,0,1,79,123Z" transform="translate(1461.5 341.5)"/><path class="g" d="M41.242-10.6,90.079,76.83-9.446,77.9Zm31.9,77.609L41.133,9.713l-33.22,58Z" transform="matrix(0.921, -0.391, 0.391, 0.921, 690.431, 99.398)"/></g></g></svg>