<svg xmlns="http://www.w3.org/2000/svg" width="49" height="49" viewBox="0 0 49 49">
  <g id="Group_37" data-name="Group 37" transform="translate(-1228 -1009)">
    <circle id="Ellipse_5" data-name="Ellipse 5" cx="24.5" cy="24.5" r="24.5" transform="translate(1228 1009)" fill="#fefaeb"/>
    <path id="Icon_material-build" data-name="Icon material-build" d="M26.245,22.075,15.861,11.691A7.323,7.323,0,0,0,14.15,3.818,7.543,7.543,0,0,0,5.706,2.335l4.907,4.907L7.189,10.664,2.169,5.758A7.354,7.354,0,0,0,3.652,14.2a7.323,7.323,0,0,0,7.873,1.712L21.909,26.3a1.1,1.1,0,0,0,1.6,0l2.624-2.624a1.028,1.028,0,0,0,.114-1.6Z" transform="translate(1238.183 1019.85)" fill="#f2d765"/>
  </g>
</svg>
