<svg xmlns="http://www.w3.org/2000/svg" width="49" height="49" viewBox="0 0 49 49">
  <g id="Group_39" data-name="Group 39" transform="translate(-360 -1009)">
    <circle id="Ellipse_4" data-name="Ellipse 4" cx="24.5" cy="24.5" r="24.5" transform="translate(360 1009)" fill="#e5ecff"/>
    <path id="Icon_awesome-arrow-up" data-name="Icon awesome-arrow-up" d="M2,16.332.783,15.118a1.307,1.307,0,0,1,0-1.854L11.409,2.632a1.307,1.307,0,0,1,1.854,0L23.889,13.258a1.307,1.307,0,0,1,0,1.854l-1.214,1.214A1.314,1.314,0,0,1,20.8,16.3L14.526,9.72V25.438a1.309,1.309,0,0,1-1.313,1.313h-1.75a1.309,1.309,0,0,1-1.313-1.313V9.72L3.873,16.31A1.3,1.3,0,0,1,2,16.332Z" transform="translate(372.013 1019.254)" fill="#346afc"/>
  </g>
</svg>
