<?xml version="1.0" encoding="utf-8"?>
<!-- Generator: Adobe Illustrator 24.0.1, SVG Export Plug-In . SVG Version: 6.00 Build 0)  -->
<svg version="1.1" id="Layer_1" xmlns="http://www.w3.org/2000/svg" xmlns:xlink="http://www.w3.org/1999/xlink" x="0px" y="0px"
	 viewBox="0 0 361.1 83.5" style="enable-background:new 0 0 361.1 83.5;" xml:space="preserve">
<style type="text/css">
	.st0{enable-background:new    ;}
	.st1{fill:#FF7C7C;}
	.st2{fill:#FFFFFF;}
</style>
<g id="logo_light" transform="translate(1)">
	<g class="st0">
		<path class="st1" d="M80.2,66.2h-4.4v-1.2H86v1.2h-4.4v11.5h-1.3V66.2z"/>
		<path class="st1" d="M96.6,72.2v5.5h-1.3v-5.4c0-2-1-3-2.8-3c-2,0-3.3,1.3-3.3,3.4v5h-1.3V64.3h1.3v5.5c0.7-1.1,1.9-1.7,3.5-1.7
			C95,68.1,96.6,69.5,96.6,72.2z"/>
		<path class="st1" d="M108.3,73.3h-7.9c0.1,2,1.7,3.3,3.7,3.3c1.2,0,2.2-0.4,2.9-1.2l0.7,0.8c-0.8,1-2.2,1.5-3.7,1.5
			c-3,0-5-2-5-4.8s2-4.8,4.6-4.8c2.7,0,4.6,2,4.6,4.8C108.3,73.1,108.3,73.2,108.3,73.3z M100.4,72.4h6.7c-0.2-1.9-1.5-3.2-3.4-3.2
			C101.9,69.2,100.6,70.5,100.4,72.4z"/>
		<path class="st1" d="M123.2,69.5l-0.5,3.8h2.6v1h-2.7l-0.4,3.4h-1l0.4-3.4H118l-0.4,3.4h-1l0.4-3.4h-2.6v-1h2.7l0.5-3.8H115v-1
			h2.7l0.4-3.4h1l-0.4,3.4h3.7l0.4-3.4h1l-0.4,3.4h2.5v1H123.2z M122.2,69.5h-3.7l-0.5,3.8h3.7L122.2,69.5z"/>
		<path class="st1" d="M130.8,65.1v12.6h-1.3V66.2h-3v-1.2H130.8z"/>
		<path class="st1" d="M149.6,69.4c0,2.7-1.9,4.3-5.1,4.3H141v4h-1.3V65.1h4.7C147.6,65.1,149.6,66.7,149.6,69.4z M148.2,69.4
			c0-2-1.3-3.2-3.9-3.2H141v6.3h3.3C146.9,72.5,148.2,71.4,148.2,69.4z"/>
		<path class="st1" d="M156.7,68.1v1.2c-0.1,0-0.2,0-0.3,0c-2,0-3.2,1.3-3.2,3.5v4.8h-1.3v-9.5h1.2v1.9
			C153.7,68.8,154.9,68.1,156.7,68.1z"/>
		<path class="st1" d="M158.7,65.2c0-0.5,0.4-0.9,0.9-0.9c0.5,0,0.9,0.4,0.9,0.9c0,0.5-0.4,0.9-0.9,0.9
			C159.1,66.1,158.7,65.7,158.7,65.2z M159,68.2h1.3v9.5H159V68.2z"/>
		<path class="st1" d="M162.9,72.9c0-2.8,2.1-4.8,4.8-4.8s4.8,2,4.8,4.8s-2,4.8-4.8,4.8S162.9,75.8,162.9,72.9z M171.2,72.9
			c0-2.2-1.5-3.7-3.5-3.7s-3.5,1.5-3.5,3.7s1.5,3.7,3.5,3.7S171.2,75.2,171.2,72.9z"/>
		<path class="st1" d="M179.9,68.1v1.2c-0.1,0-0.2,0-0.3,0c-2,0-3.2,1.3-3.2,3.5v4.8h-1.3v-9.5h1.2v1.9
			C176.9,68.8,178.2,68.1,179.9,68.1z"/>
		<path class="st1" d="M181.9,65.2c0-0.5,0.4-0.9,0.9-0.9s0.9,0.4,0.9,0.9c0,0.5-0.4,0.9-0.9,0.9C182.3,66.1,181.9,65.7,181.9,65.2z
			 M182.2,68.2h1.3v9.5h-1.3V68.2z"/>
		<path class="st1" d="M192,77.1c-0.5,0.5-1.3,0.7-2,0.7c-1.8,0-2.8-1-2.8-2.8v-5.7h-1.7v-1.1h1.7v-2.1h1.3v2.1h2.9v1.1h-2.9v5.7
			c0,1.1,0.6,1.7,1.6,1.7c0.5,0,1-0.2,1.4-0.5L192,77.1z"/>
		<path class="st1" d="M202.1,68.2l-4.7,10.6c-0.8,1.9-1.8,2.4-3.2,2.4c-0.9,0-1.7-0.3-2.3-0.9l0.6-1c0.5,0.5,1,0.7,1.7,0.7
			c0.8,0,1.4-0.4,2-1.6l0.4-0.9l-4.2-9.5h1.3l3.6,8l3.6-8H202.1z"/>
		<path class="st1" d="M211.4,66.2h-4.4v-1.2h10.2v1.2h-4.4v11.5h-1.3V66.2z"/>
		<path class="st1" d="M225.6,71.8v5.9h-1.2v-1.5c-0.6,1-1.7,1.6-3.3,1.6c-2.1,0-3.5-1.1-3.5-2.8c0-1.5,0.9-2.7,3.7-2.7h3v-0.6
			c0-1.6-0.9-2.5-2.7-2.5c-1.2,0-2.4,0.4-3.2,1.1l-0.6-1c1-0.8,2.4-1.3,3.9-1.3C224.2,68.1,225.6,69.4,225.6,71.8z M224.3,74.8v-1.5
			h-3c-1.8,0-2.4,0.7-2.4,1.7c0,1.1,0.9,1.8,2.4,1.8C222.8,76.8,223.8,76.1,224.3,74.8z"/>
		<path class="st1" d="M227.8,76.6l0.6-1c0.8,0.6,2,1.1,3.4,1.1c1.8,0,2.5-0.6,2.5-1.5c0-2.5-6.1-0.5-6.1-4.3c0-1.5,1.3-2.7,3.7-2.7
			c1.2,0,2.6,0.3,3.3,0.9l-0.6,1c-0.8-0.6-1.8-0.8-2.8-0.8c-1.7,0-2.5,0.7-2.5,1.6c0,2.6,6.1,0.6,6.1,4.3c0,1.6-1.4,2.7-3.9,2.7
			C230,77.8,228.5,77.3,227.8,76.6z"/>
		<path class="st1" d="M241.4,72.9l-2.2,2.1v2.7h-1.3V64.3h1.3v9.1l5.7-5.2h1.6l-4.1,3.9l4.4,5.6h-1.6L241.4,72.9z"/>
		<path class="st1" d="M253.7,65.1h1.3v11.5h7.1v1.2h-8.4V65.1z"/>
		<path class="st1" d="M263.7,65.2c0-0.5,0.4-0.9,0.9-0.9c0.5,0,0.9,0.4,0.9,0.9c0,0.5-0.4,0.9-0.9,0.9
			C264.1,66.1,263.7,65.7,263.7,65.2z M264,68.2h1.3v9.5H264V68.2z"/>
		<path class="st1" d="M267.5,76.6l0.6-1c0.8,0.6,2,1.1,3.4,1.1c1.8,0,2.5-0.6,2.5-1.5c0-2.5-6.1-0.5-6.1-4.3c0-1.5,1.3-2.7,3.7-2.7
			c1.2,0,2.6,0.3,3.3,0.9l-0.6,1c-0.8-0.6-1.8-0.8-2.8-0.8c-1.7,0-2.5,0.7-2.5,1.6c0,2.6,6.1,0.6,6.1,4.3c0,1.6-1.4,2.7-3.9,2.7
			C269.8,77.8,268.3,77.3,267.5,76.6z"/>
		<path class="st1" d="M282.6,77.1c-0.5,0.5-1.3,0.7-2,0.7c-1.8,0-2.8-1-2.8-2.8v-5.7h-1.7v-1.1h1.7v-2.1h1.3v2.1h2.9v1.1h-2.9v5.7
			c0,1.1,0.6,1.7,1.6,1.7c0.5,0,1-0.2,1.4-0.5L282.6,77.1z"/>
		<path class="st1" d="M291.3,66.2v5h6.5v1.2h-6.5v5.3h-1.3V65.1h8.6v1.2H291.3z"/>
		<path class="st1" d="M299.8,72.9c0-2.8,2.1-4.8,4.8-4.8c2.8,0,4.8,2,4.8,4.8s-2,4.8-4.8,4.8C301.8,77.8,299.8,75.8,299.8,72.9z
			 M308.1,72.9c0-2.2-1.5-3.7-3.5-3.7c-2,0-3.5,1.5-3.5,3.7s1.5,3.7,3.5,3.7C306.6,76.6,308.1,75.2,308.1,72.9z"/>
		<path class="st1" d="M316.8,68.1v1.2c-0.1,0-0.2,0-0.3,0c-2,0-3.2,1.3-3.2,3.5v4.8H312v-9.5h1.2v1.9
			C313.8,68.8,315.1,68.1,316.8,68.1z"/>
		<path class="st1" d="M328.1,71.8l-2.6,2.6v3.3h-1.3V65.1h1.3v7.6l7.4-7.6h1.5l-5.5,5.7l5.8,6.9h-1.6L328.1,71.8z"/>
		<path class="st1" d="M336.3,65.2c0-0.5,0.4-0.9,0.9-0.9c0.5,0,0.9,0.4,0.9,0.9c0,0.5-0.4,0.9-0.9,0.9
			C336.7,66.1,336.3,65.7,336.3,65.2z M336.6,68.2h1.3v9.5h-1.3V68.2z"/>
		<path class="st1" d="M350.1,64.3v13.4h-1.2v-1.9c-0.8,1.3-2.1,2-3.7,2c-2.7,0-4.7-2-4.7-4.8c0-2.9,2-4.8,4.7-4.8
			c1.5,0,2.8,0.6,3.6,1.9v-5.7H350.1z M348.8,72.9c0-2.2-1.5-3.7-3.5-3.7c-2,0-3.5,1.5-3.5,3.7s1.5,3.7,3.5,3.7
			C347.3,76.6,348.8,75.2,348.8,72.9z"/>
		<path class="st1" d="M352.3,76.6l0.6-1c0.8,0.6,2,1.1,3.4,1.1c1.8,0,2.5-0.6,2.5-1.5c0-2.5-6.1-0.5-6.1-4.3c0-1.5,1.3-2.7,3.7-2.7
			c1.2,0,2.6,0.3,3.3,0.9l-0.6,1c-0.8-0.6-1.8-0.8-2.8-0.8c-1.7,0-2.5,0.7-2.5,1.6c0,2.6,6.1,0.6,6.1,4.3c0,1.6-1.4,2.7-3.9,2.7
			C354.6,77.8,353.1,77.3,352.3,76.6z"/>
	</g>
	<g id="Group_3">
		<g id="Group_2_1_">
			<g class="st0">
				<path class="st2" d="M0.3,5.9c0-1.1,0.9-2.1,2.1-2.1c1.1,0,2.1,0.9,2.1,2c0,1.1-0.9,2.1-2.1,2.1C1.3,7.9,0.3,6.9,0.3,5.9z
					 M1.4,16.5h2.1v32.8H1.4V16.5z"/>
				<path class="st2" d="M46.2,30v19.3h-2.1V30.1c0-7.8-4.2-11.9-11.3-11.9c-8.2,0-13.2,5.3-13.2,13.4v17.7h-2.1V16.5h2v8
					c2.1-5.1,6.8-8.3,13.5-8.3C41,16.2,46.2,21,46.2,30z"/>
				<path class="st2" d="M69.3,7H53.1V5h34.6v2H71.4v42.3h-2.1V7z"/>
				<path class="st2" d="M123.6,30v19.3h-2.1V30.1c0-7.8-4.2-11.9-11.3-11.9C102,18.2,97,23.5,97,31.6v17.7h-2.1V2.4H97v21.9
					c2.1-4.9,6.8-8.1,13.4-8.1C118.4,16.2,123.6,21,123.6,30z"/>
				<path class="st2" d="M136.1,5.9c0-1.1,0.9-2.1,2.1-2.1c1.1,0,2.1,0.9,2.1,2c0,1.1-0.9,2.1-2.1,2.1
					C137.1,7.9,136.1,6.9,136.1,5.9z M137.2,16.5h2.1v32.8h-2.1V16.5z"/>
				<path class="st2" d="M148.3,45.1l1-1.6c2.5,2.2,6.9,4.2,12,4.2c7.4,0,10.4-2.8,10.4-6.8c0-10.4-22.2-3-22.2-15.9
					c0-4.7,3.8-8.7,12-8.7c4,0,8.5,1.3,11,3.3l-1.1,1.6c-2.7-2.1-6.4-3.1-10-3.1c-6.8,0-9.8,3-9.8,6.8c0,10.7,22.1,3.5,22.1,15.9
					c0,5.1-4.2,8.7-12.5,8.7C155.8,49.4,150.8,47.6,148.3,45.1z"/>
				<path class="st2" d="M256.6,16.2v2.1h-0.6c-7.6,0-12.1,5.1-12.1,13.5v17.4h-2.1V16.5h2v7.9C245.8,19.2,250.2,16.2,256.6,16.2z"
					/>
				<path class="st2" d="M294,2.4v46.9h-2v-9c-2.5,5.7-7.7,9.2-14.2,9.2c-9.1,0-16-6.8-16-16.6s6.9-16.6,16-16.6
					c6.3,0,11.6,3.4,14.1,9V2.4H294z M291.9,32.8c0-8.7-6-14.7-14-14.7s-14,5.9-14,14.7s6,14.7,14,14.7S291.9,41.5,291.9,32.8z"/>
				<path class="st2" d="M335,33.1h-28.7c0.1,8.5,6.3,14.4,14.6,14.4c4.3,0,8.3-1.6,10.9-4.9l1.3,1.4c-3,3.5-7.4,5.4-12.2,5.4
					c-9.7,0-16.6-6.9-16.6-16.6s6.6-16.6,15.4-16.6c8.7,0,15.4,6.8,15.4,16.4V33.1z M306.3,31.4H333c-0.5-7.7-6-13.3-13.4-13.3
					C312.2,18.1,306.8,23.7,306.3,31.4z"/>
				<path class="st2" d="M360.1,16.2v2.1h-0.6c-7.6,0-12.1,5.1-12.1,13.5v17.4h-2.1V16.5h2v7.9C349.2,19.2,353.6,16.2,360.1,16.2z"
					/>
			</g>
			<g id="Group_1_1_" transform="translate(79.427 6.261)">
				<circle id="Ellipse_1_1_" class="st2" cx="128.3" cy="20.1" r="25"/>
				<path id="Icon_ionic-md-done-all_1_" class="st1" d="M139.1,11.2L137,9.1l-9.9,9.9l2.2,2.2L139.1,11.2z M145.8,9.1l-16.6,16.4
					l-6.5-6.4l-2.2,2.2l8.7,8.7L148,11.2L145.8,9.1z M111.7,21.2l8.7,8.7l2.2-2.2l-8.7-8.7L111.7,21.2z"/>
			</g>
		</g>
	</g>
</g>
</svg>
