<?xml version="1.0" encoding="utf-8"?>
<!-- Generator: Adobe Illustrator 24.0.1, SVG Export Plug-In . SVG Version: 6.00 Build 0)  -->
<svg version="1.1" id="Component_1_18" xmlns="http://www.w3.org/2000/svg" xmlns:xlink="http://www.w3.org/1999/xlink" x="0px"
	 y="0px" viewBox="0 0 168.7 36" style="enable-background:new 0 0 168.7 36;" xml:space="preserve">
<style type="text/css">
	.st0{enable-background:new    ;}
	.st1{fill:#FFFFFF;}
	.st2{fill:#FF7C7C;}
</style>
<g id="Group_3">
	<g id="Group_2">
		<g class="st0">
			<path class="st1" d="M3,8.1c0-0.5,0.4-1,1-1c0.5,0,1,0.4,1,0.9c0,0.5-0.4,1-1,1C3.4,9,3,8.6,3,8.1z M3.5,12.9h1V28h-1V12.9z"/>
			<path class="st1" d="M24,19.2V28h-1v-8.8c0-3.6-1.9-5.5-5.2-5.5c-3.8,0-6.1,2.4-6.1,6.1V28h-1V12.9h0.9v3.7
				c1-2.3,3.1-3.8,6.2-3.8C21.7,12.8,24,15,24,19.2z"/>
			<path class="st1" d="M34.6,8.6h-7.5V7.7h15.9v0.9h-7.5V28h-1V8.6z"/>
			<path class="st1" d="M59.6,19.2V28h-1v-8.8c0-3.6-1.9-5.5-5.2-5.5c-3.8,0-6.1,2.4-6.1,6.1V28h-1V6.5h1v10.1
				c1-2.3,3.1-3.7,6.1-3.7C57.2,12.8,59.6,15,59.6,19.2z"/>
			<path class="st1" d="M65.3,8.1c0-0.5,0.4-1,1-1c0.5,0,1,0.4,1,0.9c0,0.5-0.4,1-1,1C65.8,9,65.3,8.6,65.3,8.1z M65.8,12.9h1V28h-1
				V12.9z"/>
			<path class="st1" d="M70.9,26.1l0.5-0.8c1.1,1,3.2,1.9,5.5,1.9c3.4,0,4.8-1.3,4.8-3.1c0-4.8-10.2-1.4-10.2-7.3c0-2.1,1.7-4,5.5-4
				c1.9,0,3.9,0.6,5,1.5l-0.5,0.8c-1.2-1-2.9-1.4-4.6-1.4c-3.1,0-4.5,1.4-4.5,3.1c0,4.9,10.2,1.6,10.2,7.3c0,2.3-1.9,4-5.7,4
				C74.4,28.1,72.1,27.2,70.9,26.1z"/>
			<path class="st1" d="M120.7,12.8v1h-0.3c-3.5,0-5.6,2.3-5.6,6.2v8h-1V12.9h0.9v3.6C115.7,14.2,117.7,12.8,120.7,12.8z"/>
			<path class="st1" d="M137.8,6.5V28h-0.9v-4.1c-1.1,2.6-3.5,4.2-6.5,4.2c-4.2,0-7.4-3.1-7.4-7.6s3.2-7.6,7.4-7.6
				c2.9,0,5.3,1.6,6.5,4.1V6.5H137.8z M136.8,20.5c0-4-2.8-6.7-6.4-6.7c-3.7,0-6.4,2.7-6.4,6.7s2.8,6.8,6.4,6.8
				C134.1,27.2,136.8,24.5,136.8,20.5z"/>
			<path class="st1" d="M156.6,20.6h-13.2c0.1,3.9,2.9,6.6,6.7,6.6c2,0,3.8-0.7,5-2.2l0.6,0.6c-1.4,1.6-3.4,2.5-5.6,2.5
				c-4.4,0-7.6-3.2-7.6-7.6s3-7.6,7.1-7.6c4,0,7,3.1,7,7.5V20.6z M143.5,19.8h12.3c-0.2-3.5-2.8-6.1-6.1-6.1
				C146.2,13.7,143.7,16.3,143.5,19.8z"/>
			<path class="st1" d="M168.2,12.8v1h-0.3c-3.5,0-5.6,2.3-5.6,6.2v8h-1V12.9h0.9v3.6C163.2,14.2,165.2,12.8,168.2,12.8z"/>
		</g>
		<g id="Group_1" transform="translate(79.427 6.261)">
			<circle id="Ellipse_1" class="st1" cx="18.8" cy="11.2" r="11.5"/>
			<path id="Icon_ionic-md-done-all" class="st2" d="M23.8,7.2l-1-1l-4.6,4.5l1,1L23.8,7.2z M26.8,6.2l-7.6,7.5l-3-3l-1,1l4,4
				l8.6-8.5L26.8,6.2z M11.1,11.7l4,4l1-1l-4-4L11.1,11.7z"/>
		</g>
	</g>
</g>
</svg>
