<svg xmlns="http://www.w3.org/2000/svg" width="49" height="49" viewBox="0 0 49 49">
  <g id="Group_36" data-name="Group 36" transform="translate(-1228 -1009)">
    <circle id="Ellipse_5" data-name="Ellipse 5" cx="24.5" cy="24.5" r="24.5" transform="translate(1228 1009)" fill="#ecf9f4"/>
    <path id="Icon_open-person" data-name="Icon open-person" d="M11.5,0C8.338,0,5.75,3.22,5.75,7.188s2.588,7.188,5.75,7.188,5.75-3.22,5.75-7.187S14.663,0,11.5,0ZM5.491,14.375A5.756,5.756,0,0,0,0,20.125V23H23V20.125a5.736,5.736,0,0,0-5.491-5.75A8.074,8.074,0,0,1,11.5,17.25,8.074,8.074,0,0,1,5.491,14.375Z" transform="translate(1240.798 1021)" fill="#66cdaa"/>
  </g>
</svg>
